<svg xmlns="http://www.w3.org/2000/svg" xmlns:xlink="http://www.w3.org/1999/xlink" width="200" zoomAndPan="magnify" viewBox="0 0 150 149.999998" height="200" preserveAspectRatio="xMidYMid meet" version="1.0"><defs><clipPath id="2e631917e0"><path d="M 0 17.726562 L 149 17.726562 L 149 131 L 0 131 Z M 0 17.726562 " clip-rule="nonzero"/></clipPath><clipPath id="ac3cf462d3"><path d="M 113.613281 43.757812 C 113.046875 43.757812 112.476562 43.785156 111.914062 43.84375 C 111.347656 43.898438 110.785156 43.980469 110.226562 44.09375 C 109.671875 44.203125 109.121094 44.339844 108.574219 44.507812 C 108.03125 44.671875 107.496094 44.863281 106.972656 45.078125 C 106.445312 45.296875 105.933594 45.539062 105.433594 45.808594 C 104.929688 46.074219 104.445312 46.367188 103.972656 46.683594 C 103.5 47 103.042969 47.335938 102.605469 47.699219 C 102.164062 48.058594 101.742188 48.441406 101.34375 48.84375 C 100.941406 49.242188 100.558594 49.664062 100.199219 50.105469 C 99.835938 50.542969 99.5 51 99.183594 51.472656 C 98.867188 51.945312 98.578125 52.429688 98.308594 52.933594 C 98.039062 53.433594 97.796875 53.945312 97.582031 54.472656 C 97.363281 54.996094 97.171875 55.53125 97.007812 56.074219 C 96.839844 56.621094 96.703125 57.171875 96.59375 57.726562 C 96.480469 58.285156 96.398438 58.847656 96.34375 59.414062 C 96.285156 59.976562 96.257812 60.542969 96.257812 61.113281 C 96.257812 61.683594 96.285156 62.25 96.34375 62.8125 C 96.398438 63.378906 96.480469 63.941406 96.59375 64.5 C 96.703125 65.054688 96.839844 65.605469 97.007812 66.152344 C 97.171875 66.695312 97.363281 67.230469 97.582031 67.753906 C 97.796875 68.28125 98.039062 68.792969 98.308594 69.292969 C 98.578125 69.796875 98.867188 70.28125 99.183594 70.753906 C 99.5 71.226562 99.835938 71.683594 100.199219 72.121094 C 100.558594 72.5625 100.941406 72.984375 101.34375 73.382812 C 101.742188 73.785156 102.164062 74.167969 102.605469 74.527344 C 103.042969 74.890625 103.5 75.226562 103.972656 75.542969 C 104.445312 75.859375 104.929688 76.152344 105.433594 76.417969 C 105.933594 76.6875 106.445312 76.929688 106.972656 77.148438 C 107.496094 77.363281 108.03125 77.554688 108.574219 77.71875 C 109.121094 77.886719 109.671875 78.023438 110.226562 78.132812 C 110.785156 78.246094 111.347656 78.328125 111.914062 78.382812 C 112.476562 78.441406 113.046875 78.46875 113.613281 78.46875 C 114.183594 78.46875 114.75 78.441406 115.316406 78.382812 C 115.878906 78.328125 116.441406 78.246094 117 78.132812 C 117.558594 78.023438 118.105469 77.886719 118.652344 77.71875 C 119.195312 77.554688 119.730469 77.363281 120.253906 77.148438 C 120.78125 76.929688 121.292969 76.6875 121.792969 76.417969 C 122.296875 76.152344 122.78125 75.859375 123.253906 75.542969 C 123.726562 75.226562 124.183594 74.890625 124.621094 74.527344 C 125.0625 74.167969 125.484375 73.785156 125.886719 73.382812 C 126.285156 72.984375 126.667969 72.5625 127.027344 72.121094 C 127.390625 71.683594 127.726562 71.226562 128.042969 70.753906 C 128.359375 70.28125 128.652344 69.796875 128.917969 69.292969 C 129.1875 68.792969 129.429688 68.28125 129.648438 67.753906 C 129.863281 67.230469 130.054688 66.695312 130.21875 66.152344 C 130.386719 65.605469 130.523438 65.054688 130.632812 64.5 C 130.746094 63.941406 130.828125 63.378906 130.882812 62.8125 C 130.941406 62.25 130.96875 61.683594 130.96875 61.113281 C 130.96875 60.542969 130.941406 59.976562 130.882812 59.414062 C 130.828125 58.847656 130.746094 58.285156 130.632812 57.726562 C 130.523438 57.171875 130.386719 56.621094 130.21875 56.074219 C 130.054688 55.53125 129.863281 54.996094 129.648438 54.472656 C 129.429688 53.945312 129.1875 53.433594 128.917969 52.933594 C 128.652344 52.429688 128.359375 51.945312 128.042969 51.472656 C 127.726562 51 127.390625 50.542969 127.027344 50.105469 C 126.667969 49.664062 126.285156 49.242188 125.886719 48.84375 C 125.484375 48.441406 125.0625 48.058594 124.621094 47.699219 C 124.183594 47.335938 123.726562 47 123.253906 46.683594 C 122.78125 46.367188 122.296875 46.074219 121.792969 45.808594 C 121.292969 45.539062 120.78125 45.296875 120.253906 45.078125 C 119.730469 44.863281 119.195312 44.671875 118.652344 44.507812 C 118.105469 44.339844 117.558594 44.203125 117 44.09375 C 116.441406 43.980469 115.878906 43.898438 115.316406 43.84375 C 114.75 43.785156 114.183594 43.757812 113.613281 43.757812 Z M 113.613281 69.789062 C 113.042969 69.789062 112.480469 69.734375 111.921875 69.625 C 111.363281 69.511719 110.820312 69.347656 110.292969 69.128906 C 109.765625 68.910156 109.265625 68.644531 108.792969 68.328125 C 108.320312 68.011719 107.878906 67.652344 107.476562 67.25 C 107.074219 66.847656 106.714844 66.40625 106.398438 65.933594 C 106.082031 65.460938 105.816406 64.960938 105.597656 64.433594 C 105.378906 63.90625 105.214844 63.363281 105.101562 62.804688 C 104.992188 62.246094 104.9375 61.683594 104.9375 61.113281 C 104.9375 60.542969 104.992188 59.980469 105.101562 59.421875 C 105.214844 58.863281 105.378906 58.320312 105.597656 57.792969 C 105.816406 57.265625 106.082031 56.765625 106.398438 56.292969 C 106.714844 55.820312 107.074219 55.378906 107.476562 54.976562 C 107.878906 54.574219 108.320312 54.214844 108.792969 53.898438 C 109.265625 53.582031 109.765625 53.316406 110.292969 53.097656 C 110.820312 52.878906 111.363281 52.714844 111.921875 52.601562 C 112.480469 52.492188 113.042969 52.4375 113.613281 52.4375 C 114.183594 52.4375 114.746094 52.492188 115.304688 52.601562 C 115.863281 52.714844 116.40625 52.878906 116.933594 53.097656 C 117.460938 53.316406 117.960938 53.582031 118.433594 53.898438 C 118.90625 54.214844 119.347656 54.574219 119.75 54.976562 C 120.152344 55.378906 120.511719 55.820312 120.828125 56.292969 C 121.144531 56.765625 121.414062 57.265625 121.628906 57.792969 C 121.847656 58.320312 122.011719 58.863281 122.125 59.421875 C 122.234375 59.980469 122.289062 60.542969 122.289062 61.113281 C 122.289062 61.683594 122.234375 62.246094 122.125 62.804688 C 122.011719 63.363281 121.847656 63.90625 121.628906 64.433594 C 121.414062 64.960938 121.144531 65.460938 120.828125 65.933594 C 120.511719 66.40625 120.152344 66.847656 119.75 67.25 C 119.347656 67.652344 118.90625 68.011719 118.433594 68.328125 C 117.960938 68.644531 117.460938 68.910156 116.933594 69.128906 C 116.40625 69.347656 115.863281 69.511719 115.304688 69.625 C 114.746094 69.734375 114.183594 69.789062 113.613281 69.789062 Z M 35.519531 43.757812 C 34.949219 43.757812 34.382812 43.785156 33.816406 43.84375 C 33.253906 43.898438 32.691406 43.980469 32.132812 44.09375 C 31.574219 44.203125 31.023438 44.339844 30.480469 44.507812 C 29.9375 44.671875 29.402344 44.863281 28.878906 45.078125 C 28.351562 45.296875 27.839844 45.539062 27.339844 45.808594 C 26.835938 46.074219 26.351562 46.367188 25.878906 46.683594 C 25.40625 47 24.949219 47.335938 24.507812 47.699219 C 24.070312 48.058594 23.648438 48.441406 23.246094 48.84375 C 22.84375 49.242188 22.464844 49.664062 22.105469 50.105469 C 21.742188 50.542969 21.40625 51 21.089844 51.472656 C 20.773438 51.945312 20.480469 52.429688 20.214844 52.933594 C 19.945312 53.433594 19.703125 53.945312 19.484375 54.472656 C 19.269531 54.996094 19.078125 55.53125 18.910156 56.074219 C 18.746094 56.621094 18.609375 57.171875 18.496094 57.726562 C 18.386719 58.285156 18.304688 58.847656 18.246094 59.414062 C 18.191406 59.976562 18.164062 60.542969 18.164062 61.113281 C 18.164062 61.683594 18.191406 62.25 18.246094 62.8125 C 18.304688 63.378906 18.386719 63.941406 18.496094 64.5 C 18.609375 65.054688 18.746094 65.605469 18.910156 66.152344 C 19.078125 66.695312 19.269531 67.230469 19.484375 67.753906 C 19.703125 68.28125 19.945312 68.792969 20.214844 69.292969 C 20.480469 69.796875 20.773438 70.28125 21.089844 70.753906 C 21.40625 71.226562 21.742188 71.683594 22.105469 72.121094 C 22.464844 72.5625 22.84375 72.984375 23.246094 73.382812 C 23.648438 73.785156 24.070312 74.167969 24.507812 74.527344 C 24.949219 74.890625 25.40625 75.226562 25.878906 75.542969 C 26.351562 75.859375 26.835938 76.152344 27.339844 76.417969 C 27.839844 76.6875 28.351562 76.929688 28.878906 77.148438 C 29.402344 77.363281 29.9375 77.554688 30.480469 77.71875 C 31.023438 77.886719 31.574219 78.023438 32.132812 78.132812 C 32.691406 78.246094 33.253906 78.328125 33.816406 78.382812 C 34.382812 78.441406 34.949219 78.46875 35.519531 78.46875 C 36.085938 78.46875 36.652344 78.441406 37.21875 78.382812 C 37.785156 78.328125 38.347656 78.246094 38.90625 78.132812 C 39.460938 78.023438 40.011719 77.886719 40.554688 77.71875 C 41.101562 77.554688 41.636719 77.363281 42.160156 77.148438 C 42.683594 76.929688 43.199219 76.6875 43.699219 76.417969 C 44.199219 76.152344 44.6875 75.859375 45.160156 75.542969 C 45.632812 75.226562 46.089844 74.890625 46.527344 74.527344 C 46.96875 74.167969 47.386719 73.785156 47.789062 73.382812 C 48.191406 72.984375 48.574219 72.5625 48.933594 72.121094 C 49.292969 71.683594 49.632812 71.226562 49.949219 70.753906 C 50.265625 70.28125 50.554688 69.796875 50.824219 69.292969 C 51.09375 68.792969 51.335938 68.28125 51.550781 67.753906 C 51.769531 67.230469 51.960938 66.695312 52.125 66.152344 C 52.289062 65.605469 52.429688 65.054688 52.539062 64.5 C 52.652344 63.941406 52.734375 63.378906 52.789062 62.8125 C 52.84375 62.25 52.875 61.683594 52.875 61.113281 C 52.875 60.542969 52.84375 59.976562 52.789062 59.414062 C 52.734375 58.847656 52.652344 58.285156 52.539062 57.726562 C 52.429688 57.171875 52.289062 56.621094 52.125 56.074219 C 51.960938 55.53125 51.769531 54.996094 51.550781 54.472656 C 51.335938 53.945312 51.09375 53.433594 50.824219 52.933594 C 50.554688 52.429688 50.265625 51.945312 49.949219 51.472656 C 49.632812 51 49.292969 50.542969 48.933594 50.105469 C 48.574219 49.664062 48.191406 49.242188 47.789062 48.84375 C 47.386719 48.441406 46.96875 48.058594 46.527344 47.699219 C 46.089844 47.335938 45.632812 47 45.160156 46.683594 C 44.6875 46.367188 44.199219 46.074219 43.699219 45.808594 C 43.199219 45.539062 42.683594 45.296875 42.160156 45.078125 C 41.636719 44.863281 41.101562 44.671875 40.554688 44.507812 C 40.011719 44.339844 39.460938 44.203125 38.90625 44.09375 C 38.347656 43.980469 37.785156 43.898438 37.21875 43.84375 C 36.652344 43.785156 36.085938 43.757812 35.519531 43.757812 Z M 35.519531 69.789062 C 34.949219 69.789062 34.382812 69.734375 33.824219 69.625 C 33.265625 69.511719 32.722656 69.347656 32.199219 69.128906 C 31.671875 68.910156 31.171875 68.644531 30.699219 68.328125 C 30.222656 68.011719 29.785156 67.652344 29.382812 67.25 C 28.980469 66.847656 28.621094 66.40625 28.304688 65.933594 C 27.988281 65.460938 27.71875 64.960938 27.503906 64.433594 C 27.285156 63.90625 27.121094 63.363281 27.007812 62.804688 C 26.898438 62.246094 26.839844 61.683594 26.839844 61.113281 C 26.839844 60.542969 26.898438 59.980469 27.007812 59.421875 C 27.121094 58.863281 27.285156 58.320312 27.503906 57.792969 C 27.71875 57.265625 27.988281 56.765625 28.304688 56.292969 C 28.621094 55.820312 28.980469 55.378906 29.382812 54.976562 C 29.785156 54.574219 30.222656 54.214844 30.699219 53.898438 C 31.171875 53.582031 31.671875 53.316406 32.199219 53.097656 C 32.722656 52.878906 33.265625 52.714844 33.824219 52.601562 C 34.382812 52.492188 34.949219 52.4375 35.519531 52.4375 C 36.089844 52.4375 36.652344 52.492188 37.210938 52.601562 C 37.769531 52.714844 38.3125 52.878906 38.839844 53.097656 C 39.367188 53.316406 39.867188 53.582031 40.339844 53.898438 C 40.8125 54.214844 41.25 54.574219 41.65625 54.976562 C 42.058594 55.378906 42.417969 55.820312 42.734375 56.292969 C 43.050781 56.765625 43.316406 57.265625 43.535156 57.792969 C 43.753906 58.320312 43.917969 58.863281 44.027344 59.421875 C 44.140625 59.980469 44.195312 60.542969 44.195312 61.113281 C 44.195312 61.683594 44.140625 62.246094 44.027344 62.804688 C 43.917969 63.363281 43.753906 63.90625 43.535156 64.433594 C 43.316406 64.960938 43.050781 65.460938 42.734375 65.933594 C 42.417969 66.40625 42.058594 66.847656 41.65625 67.25 C 41.25 67.652344 40.8125 68.011719 40.339844 68.328125 C 39.867188 68.644531 39.367188 68.910156 38.839844 69.128906 C 38.3125 69.347656 37.769531 69.511719 37.210938 69.625 C 36.652344 69.734375 36.089844 69.789062 35.519531 69.789062 Z M 117.605469 22.238281 C 113.789062 21.832031 110.007812 22.050781 106.261719 22.898438 C 102.515625 23.746094 99.007812 25.175781 95.738281 27.183594 C 95.550781 26.507812 95.308594 25.851562 95.011719 25.214844 C 94.714844 24.574219 94.371094 23.964844 93.972656 23.382812 C 93.578125 22.804688 93.140625 22.257812 92.65625 21.75 C 92.171875 21.238281 91.648438 20.773438 91.085938 20.347656 C 90.527344 19.921875 89.933594 19.546875 89.3125 19.21875 C 88.691406 18.890625 88.046875 18.617188 87.378906 18.394531 C 86.714844 18.171875 86.03125 18.003906 85.339844 17.890625 C 84.644531 17.78125 83.945312 17.726562 83.242188 17.726562 L 65.890625 17.726562 C 65.1875 17.730469 64.492188 17.792969 63.800781 17.910156 C 63.109375 18.027344 62.429688 18.199219 61.765625 18.421875 C 61.101562 18.648438 60.460938 18.925781 59.839844 19.253906 C 59.21875 19.582031 58.628906 19.960938 58.070312 20.382812 C 57.511719 20.804688 56.992188 21.269531 56.503906 21.777344 C 56.019531 22.285156 55.582031 22.828125 55.183594 23.40625 C 54.785156 23.984375 54.4375 24.589844 54.136719 25.222656 C 53.835938 25.859375 53.589844 26.511719 53.394531 27.183594 C 50.132812 25.15625 46.625 23.71875 42.878906 22.867188 C 39.128906 22.019531 35.347656 21.8125 31.527344 22.238281 C 30.460938 22.398438 29.402344 22.605469 28.355469 22.855469 C 27.304688 23.109375 26.269531 23.410156 25.25 23.757812 C 24.230469 24.101562 23.226562 24.496094 22.238281 24.929688 C 21.253906 25.367188 20.289062 25.847656 19.34375 26.371094 C 18.402344 26.894531 17.484375 27.460938 16.59375 28.066406 C 15.699219 28.671875 14.835938 29.316406 14 30 C 13.167969 30.683594 12.367188 31.402344 11.59375 32.15625 C 10.824219 32.910156 10.089844 33.699219 9.390625 34.523438 C 8.695312 35.34375 8.03125 36.195312 7.410156 37.074219 C 6.789062 37.957031 6.207031 38.863281 5.664062 39.796875 C 5.125 40.726562 4.625 41.683594 4.171875 42.660156 C 3.714844 43.640625 3.304688 44.636719 2.941406 45.648438 C 2.574219 46.664062 2.253906 47.695312 1.980469 48.738281 C 1.707031 49.78125 1.480469 50.832031 1.304688 51.898438 C 1.125 52.960938 0.996094 54.03125 0.914062 55.105469 C 0.828125 56.179688 0.796875 57.257812 0.808594 58.335938 L 0.808594 107.101562 C 0.808594 108.636719 0.957031 110.152344 1.253906 111.65625 C 1.554688 113.160156 1.996094 114.617188 2.585938 116.03125 C 3.171875 117.449219 3.894531 118.792969 4.75 120.0625 C 5.605469 121.335938 6.578125 122.511719 7.664062 123.589844 C 8.746094 124.6875 9.925781 125.671875 11.203125 126.535156 C 12.480469 127.398438 13.832031 128.128906 15.253906 128.726562 C 16.675781 129.320312 18.144531 129.769531 19.65625 130.074219 C 21.167969 130.378906 22.695312 130.53125 24.238281 130.53125 C 25.28125 130.53125 26.320312 130.460938 27.351562 130.320312 C 28.386719 130.183594 29.40625 129.976562 30.414062 129.703125 C 31.417969 129.429688 32.402344 129.089844 33.363281 128.683594 C 34.324219 128.28125 35.257812 127.816406 36.15625 127.289062 C 37.054688 126.761719 37.917969 126.175781 38.738281 125.535156 C 39.558594 124.890625 40.335938 124.199219 41.066406 123.453125 C 41.796875 122.710938 42.472656 121.921875 43.101562 121.085938 C 43.726562 120.25 44.292969 119.378906 44.804688 118.46875 L 59.726562 91.484375 L 89.402344 91.484375 L 104.328125 118.46875 C 104.960938 119.589844 105.679688 120.652344 106.488281 121.652344 C 107.292969 122.65625 108.175781 123.585938 109.132812 124.441406 C 110.09375 125.300781 111.117188 126.074219 112.203125 126.761719 C 113.289062 127.453125 114.421875 128.046875 115.605469 128.550781 C 116.789062 129.054688 118.007812 129.457031 119.257812 129.761719 C 120.507812 130.066406 121.773438 130.265625 123.054688 130.363281 C 124.335938 130.457031 125.621094 130.449219 126.902344 130.332031 C 128.183594 130.21875 129.445312 130 130.691406 129.679688 C 131.9375 129.359375 133.148438 128.9375 134.324219 128.417969 C 135.5 127.894531 136.625 127.28125 137.699219 126.578125 C 138.777344 125.871094 139.789062 125.085938 140.734375 124.214844 C 141.679688 123.34375 142.550781 122.398438 143.339844 121.386719 C 144.132812 120.371094 144.835938 119.300781 145.453125 118.171875 C 146.066406 117.042969 146.589844 115.871094 147.011719 114.65625 C 147.433594 113.441406 147.757812 112.199219 147.976562 110.933594 C 148.195312 109.664062 148.3125 108.386719 148.324219 107.101562 L 148.324219 58.335938 C 148.335938 57.257812 148.300781 56.179688 148.21875 55.105469 C 148.136719 54.03125 148.007812 52.960938 147.828125 51.898438 C 147.648438 50.832031 147.425781 49.78125 147.152344 48.738281 C 146.878906 47.695312 146.558594 46.664062 146.191406 45.648438 C 145.828125 44.636719 145.417969 43.640625 144.960938 42.660156 C 144.507812 41.683594 144.007812 40.726562 143.46875 39.796875 C 142.925781 38.863281 142.34375 37.957031 141.722656 37.074219 C 141.097656 36.195312 140.4375 35.34375 139.738281 34.523438 C 139.039062 33.699219 138.304688 32.910156 137.535156 32.15625 C 136.765625 31.402344 135.964844 30.683594 135.128906 30 C 134.296875 29.316406 133.433594 28.671875 132.539062 28.066406 C 131.648438 27.460938 130.730469 26.894531 129.789062 26.371094 C 128.84375 25.847656 127.878906 25.367188 126.894531 24.929688 C 125.90625 24.496094 124.902344 24.101562 123.882812 23.757812 C 122.859375 23.410156 121.824219 23.109375 120.777344 22.855469 C 119.730469 22.605469 118.671875 22.398438 117.605469 22.238281 Z M 65.890625 26.40625 L 83.242188 26.40625 C 83.527344 26.40625 83.808594 26.433594 84.089844 26.488281 C 84.371094 26.542969 84.640625 26.625 84.902344 26.734375 C 85.167969 26.84375 85.417969 26.976562 85.652344 27.136719 C 85.890625 27.292969 86.109375 27.472656 86.3125 27.675781 C 86.511719 27.875 86.691406 28.097656 86.851562 28.332031 C 87.007812 28.570312 87.144531 28.820312 87.25 29.082031 C 87.359375 29.347656 87.441406 29.617188 87.5 29.898438 C 87.554688 30.175781 87.582031 30.457031 87.582031 30.742188 L 87.582031 31.957031 L 87.148438 31.957031 C 85.429688 32.722656 83.664062 33.359375 81.855469 33.867188 L 80.902344 33.867188 C 76.9375 34.703125 72.976562 34.703125 69.011719 33.867188 L 67.972656 33.867188 C 65.972656 33.339844 64.035156 32.648438 62.15625 31.785156 L 61.550781 31.957031 L 61.550781 30.742188 C 61.550781 30.457031 61.578125 30.175781 61.632812 29.898438 C 61.6875 29.617188 61.773438 29.347656 61.878906 29.082031 C 61.988281 28.820312 62.125 28.570312 62.28125 28.332031 C 62.441406 28.097656 62.621094 27.875 62.820312 27.675781 C 63.023438 27.472656 63.242188 27.292969 63.480469 27.136719 C 63.714844 26.976562 63.964844 26.84375 64.230469 26.734375 C 64.492188 26.625 64.761719 26.542969 65.042969 26.488281 C 65.320312 26.433594 65.605469 26.40625 65.890625 26.40625 Z M 139.644531 107.101562 C 139.652344 107.917969 139.589844 108.726562 139.460938 109.53125 C 139.332031 110.335938 139.136719 111.125 138.878906 111.898438 C 138.617188 112.671875 138.296875 113.417969 137.914062 114.136719 C 137.53125 114.855469 137.089844 115.539062 136.59375 116.1875 C 136.097656 116.832031 135.554688 117.433594 134.957031 117.988281 C 134.359375 118.546875 133.722656 119.046875 133.042969 119.5 C 132.363281 119.949219 131.652344 120.339844 130.910156 120.671875 C 130.164062 121.003906 129.398438 121.273438 128.609375 121.480469 C 127.820312 121.683594 127.019531 121.824219 126.207031 121.894531 C 125.394531 121.96875 124.582031 121.972656 123.769531 121.910156 C 122.957031 121.847656 122.15625 121.722656 121.363281 121.527344 C 120.574219 121.332031 119.804688 121.070312 119.054688 120.75 C 118.304688 120.425781 117.589844 120.042969 116.90625 119.601562 C 116.21875 119.160156 115.574219 118.667969 114.972656 118.117188 C 114.367188 117.570312 113.816406 116.976562 113.308594 116.335938 C 112.804688 115.695312 112.355469 115.019531 111.964844 114.304688 L 94.609375 82.804688 L 54.695312 82.804688 L 37.339844 114.304688 C 37.046875 114.785156 36.726562 115.246094 36.382812 115.6875 C 36.035156 116.132812 35.667969 116.554688 35.277344 116.957031 C 34.882812 117.359375 34.472656 117.738281 34.035156 118.097656 C 33.601562 118.453125 33.148438 118.785156 32.679688 119.089844 C 32.207031 119.398438 31.71875 119.675781 31.21875 119.929688 C 30.714844 120.183594 30.203125 120.40625 29.675781 120.601562 C 29.148438 120.796875 28.613281 120.960938 28.066406 121.097656 C 27.519531 121.234375 26.96875 121.339844 26.414062 121.414062 C 25.855469 121.488281 25.296875 121.53125 24.734375 121.542969 C 24.171875 121.554688 23.609375 121.539062 23.050781 121.488281 C 22.492188 121.4375 21.9375 121.355469 21.386719 121.246094 C 20.835938 121.132812 20.292969 120.992188 19.757812 120.820312 C 19.222656 120.648438 18.699219 120.449219 18.183594 120.21875 C 17.671875 119.988281 17.171875 119.730469 16.6875 119.445312 C 16.203125 119.160156 15.738281 118.847656 15.289062 118.511719 C 14.839844 118.175781 14.410156 117.8125 14 117.429688 C 12.578125 116.085938 11.476562 114.515625 10.691406 112.726562 C 9.910156 110.933594 9.507812 109.058594 9.488281 107.101562 L 9.488281 58.335938 C 9.46875 57.519531 9.488281 56.707031 9.546875 55.890625 C 9.601562 55.078125 9.695312 54.269531 9.824219 53.460938 C 9.953125 52.65625 10.121094 51.859375 10.320312 51.066406 C 10.523438 50.277344 10.757812 49.496094 11.03125 48.726562 C 11.300781 47.957031 11.609375 47.203125 11.949219 46.460938 C 12.289062 45.71875 12.660156 44.992188 13.066406 44.285156 C 13.46875 43.578125 13.90625 42.886719 14.375 42.21875 C 14.839844 41.550781 15.335938 40.902344 15.863281 40.277344 C 16.386719 39.65625 16.941406 39.054688 17.519531 38.480469 C 18.101562 37.90625 18.703125 37.359375 19.332031 36.839844 C 19.960938 36.320312 20.613281 35.828125 21.285156 35.367188 C 21.957031 34.90625 22.652344 34.476562 23.363281 34.078125 C 24.074219 33.675781 24.804688 33.3125 25.546875 32.976562 C 26.292969 32.644531 27.050781 32.347656 27.824219 32.082031 C 28.59375 31.816406 29.378906 31.585938 30.167969 31.390625 C 30.960938 31.199219 31.761719 31.039062 32.570312 30.917969 C 35.742188 30.554688 38.878906 30.769531 41.972656 31.5625 C 45.066406 32.355469 47.921875 33.671875 50.53125 35.515625 L 52.875 36.992188 L 55.042969 38.292969 C 59.207031 40.59375 63.632812 42.15625 68.320312 42.976562 L 69.273438 42.976562 C 70.429688 43.0625 71.585938 43.0625 72.742188 42.976562 L 74.914062 42.976562 C 79.59375 42.925781 84.105469 42.027344 88.449219 40.289062 L 89.144531 40.289062 C 90.582031 39.730469 91.972656 39.0625 93.308594 38.292969 L 93.917969 38.292969 L 96.257812 37.164062 L 98.6875 35.6875 C 99.972656 34.757812 101.332031 33.953125 102.769531 33.277344 C 104.207031 32.601562 105.691406 32.070312 107.230469 31.675781 C 108.769531 31.28125 110.328125 31.035156 111.914062 30.9375 C 113.496094 30.839844 115.078125 30.890625 116.652344 31.089844 C 117.453125 31.214844 118.246094 31.375 119.03125 31.570312 C 119.820312 31.765625 120.597656 31.996094 121.363281 32.261719 C 122.128906 32.523438 122.882812 32.824219 123.621094 33.15625 C 124.359375 33.488281 125.082031 33.851562 125.789062 34.25 C 126.496094 34.648438 127.183594 35.074219 127.855469 35.535156 C 128.523438 35.992188 129.167969 36.480469 129.792969 36.996094 C 130.417969 37.511719 131.019531 38.058594 131.597656 38.628906 C 132.171875 39.199219 132.722656 39.792969 133.246094 40.414062 C 133.765625 41.03125 134.261719 41.671875 134.726562 42.335938 C 135.191406 43 135.628906 43.683594 136.03125 44.386719 C 136.4375 45.089844 136.808594 45.808594 137.148438 46.546875 C 137.488281 47.28125 137.792969 48.03125 138.066406 48.796875 C 138.339844 49.558594 138.578125 50.332031 138.78125 51.117188 C 138.984375 51.902344 139.152344 52.695312 139.285156 53.496094 C 139.417969 54.296875 139.511719 55.097656 139.574219 55.90625 C 139.632812 56.714844 139.65625 57.527344 139.644531 58.335938 Z M 139.644531 107.101562 " clip-rule="nonzero"/></clipPath><linearGradient x1="-0.00164787" gradientTransform="matrix(8.677201, 0, 0, 8.677201, 0.809924, 17.727281)" y1="6.5" x2="17.00165" gradientUnits="userSpaceOnUse" y2="6.5" id="e57e4ba135"><stop stop-opacity="1" stop-color="rgb(93.328857%, 16.468811%, 48.239136%)" offset="0"/><stop stop-opacity="1" stop-color="rgb(93.380737%, 16.996765%, 47.862244%)" offset="0.00390625"/><stop stop-opacity="1" stop-color="rgb(93.434143%, 17.524719%, 47.485352%)" offset="0.0078125"/><stop stop-opacity="1" stop-color="rgb(93.487549%, 18.058777%, 47.103882%)" offset="0.0117188"/><stop stop-opacity="1" stop-color="rgb(93.540955%, 18.59436%, 46.722412%)" offset="0.015625"/><stop stop-opacity="1" stop-color="rgb(93.59436%, 19.128418%, 46.340942%)" offset="0.0195312"/><stop stop-opacity="1" stop-color="rgb(93.647766%, 19.664001%, 45.959473%)" offset="0.0234375"/><stop stop-opacity="1" stop-color="rgb(93.699646%, 20.198059%, 45.578003%)" offset="0.0273438"/><stop stop-opacity="1" stop-color="rgb(93.753052%, 20.733643%, 45.196533%)" offset="0.03125"/><stop stop-opacity="1" stop-color="rgb(93.806458%, 21.2677%, 44.815063%)" offset="0.0351563"/><stop stop-opacity="1" stop-color="rgb(93.859863%, 21.803284%, 44.433594%)" offset="0.0390625"/><stop stop-opacity="1" stop-color="rgb(93.913269%, 22.337341%, 44.052124%)" offset="0.0429688"/><stop stop-opacity="1" stop-color="rgb(93.966675%, 22.872925%, 43.670654%)" offset="0.046875"/><stop stop-opacity="1" stop-color="rgb(94.018555%, 23.406982%, 43.289185%)" offset="0.0507813"/><stop stop-opacity="1" stop-color="rgb(94.07196%, 23.94104%, 42.907715%)" offset="0.0546875"/><stop stop-opacity="1" stop-color="rgb(94.125366%, 24.475098%, 42.526245%)" offset="0.0585938"/><stop stop-opacity="1" stop-color="rgb(94.178772%, 25.010681%, 42.144775%)" offset="0.0625"/><stop stop-opacity="1" stop-color="rgb(94.232178%, 25.544739%, 41.763306%)" offset="0.0664062"/><stop stop-opacity="1" stop-color="rgb(94.285583%, 26.080322%, 41.381836%)" offset="0.0703125"/><stop stop-opacity="1" stop-color="rgb(94.337463%, 26.61438%, 40.99884%)" offset="0.0742188"/><stop stop-opacity="1" stop-color="rgb(94.390869%, 27.149963%, 40.617371%)" offset="0.078125"/><stop stop-opacity="1" stop-color="rgb(94.444275%, 27.684021%, 40.235901%)" offset="0.0820313"/><stop stop-opacity="1" stop-color="rgb(94.497681%, 28.219604%, 39.854431%)" offset="0.0859375"/><stop stop-opacity="1" stop-color="rgb(94.551086%, 28.753662%, 39.472961%)" offset="0.0898438"/><stop stop-opacity="1" stop-color="rgb(94.604492%, 29.289246%, 39.091492%)" offset="0.09375"/><stop stop-opacity="1" stop-color="rgb(94.657898%, 29.823303%, 38.710022%)" offset="0.0976563"/><stop stop-opacity="1" stop-color="rgb(94.711304%, 30.358887%, 38.328552%)" offset="0.101563"/><stop stop-opacity="1" stop-color="rgb(94.763184%, 30.892944%, 37.947083%)" offset="0.105469"/><stop stop-opacity="1" stop-color="rgb(94.816589%, 31.427002%, 37.565613%)" offset="0.109375"/><stop stop-opacity="1" stop-color="rgb(94.869995%, 31.96106%, 37.184143%)" offset="0.113281"/><stop stop-opacity="1" stop-color="rgb(94.923401%, 32.496643%, 36.802673%)" offset="0.117188"/><stop stop-opacity="1" stop-color="rgb(94.976807%, 33.030701%, 36.421204%)" offset="0.121094"/><stop stop-opacity="1" stop-color="rgb(95.030212%, 33.566284%, 36.039734%)" offset="0.125"/><stop stop-opacity="1" stop-color="rgb(95.082092%, 34.100342%, 35.658264%)" offset="0.128906"/><stop stop-opacity="1" stop-color="rgb(95.135498%, 34.635925%, 35.276794%)" offset="0.132812"/><stop stop-opacity="1" stop-color="rgb(95.188904%, 35.169983%, 34.895325%)" offset="0.136719"/><stop stop-opacity="1" stop-color="rgb(95.24231%, 35.705566%, 34.513855%)" offset="0.140625"/><stop stop-opacity="1" stop-color="rgb(95.295715%, 36.239624%, 34.132385%)" offset="0.144531"/><stop stop-opacity="1" stop-color="rgb(95.349121%, 36.775208%, 33.750916%)" offset="0.148438"/><stop stop-opacity="1" stop-color="rgb(95.402527%, 37.309265%, 33.369446%)" offset="0.152344"/><stop stop-opacity="1" stop-color="rgb(95.455933%, 37.843323%, 32.987976%)" offset="0.15625"/><stop stop-opacity="1" stop-color="rgb(95.507812%, 38.37738%, 32.606506%)" offset="0.160156"/><stop stop-opacity="1" stop-color="rgb(95.561218%, 38.912964%, 32.225037%)" offset="0.164063"/><stop stop-opacity="1" stop-color="rgb(95.614624%, 39.447021%, 31.842041%)" offset="0.167969"/><stop stop-opacity="1" stop-color="rgb(95.66803%, 39.982605%, 31.460571%)" offset="0.171875"/><stop stop-opacity="1" stop-color="rgb(95.721436%, 40.516663%, 31.079102%)" offset="0.175781"/><stop stop-opacity="1" stop-color="rgb(95.774841%, 41.052246%, 30.697632%)" offset="0.179688"/><stop stop-opacity="1" stop-color="rgb(95.826721%, 41.586304%, 30.316162%)" offset="0.183594"/><stop stop-opacity="1" stop-color="rgb(95.880127%, 42.121887%, 29.934692%)" offset="0.1875"/><stop stop-opacity="1" stop-color="rgb(95.933533%, 42.655945%, 29.553223%)" offset="0.191406"/><stop stop-opacity="1" stop-color="rgb(95.986938%, 43.191528%, 29.171753%)" offset="0.195313"/><stop stop-opacity="1" stop-color="rgb(96.040344%, 43.725586%, 28.790283%)" offset="0.199219"/><stop stop-opacity="1" stop-color="rgb(96.09375%, 44.261169%, 28.408813%)" offset="0.203125"/><stop stop-opacity="1" stop-color="rgb(96.147156%, 44.795227%, 28.027344%)" offset="0.207031"/><stop stop-opacity="1" stop-color="rgb(96.200562%, 45.329285%, 27.645874%)" offset="0.210938"/><stop stop-opacity="1" stop-color="rgb(96.252441%, 45.863342%, 27.264404%)" offset="0.214844"/><stop stop-opacity="1" stop-color="rgb(96.305847%, 46.398926%, 26.882935%)" offset="0.21875"/><stop stop-opacity="1" stop-color="rgb(96.359253%, 46.932983%, 26.501465%)" offset="0.222656"/><stop stop-opacity="1" stop-color="rgb(96.412659%, 47.468567%, 26.119995%)" offset="0.226563"/><stop stop-opacity="1" stop-color="rgb(96.466064%, 48.002625%, 25.738525%)" offset="0.230469"/><stop stop-opacity="1" stop-color="rgb(96.51947%, 48.538208%, 25.357056%)" offset="0.234375"/><stop stop-opacity="1" stop-color="rgb(96.57135%, 49.072266%, 24.975586%)" offset="0.238281"/><stop stop-opacity="1" stop-color="rgb(96.624756%, 49.607849%, 24.594116%)" offset="0.242188"/><stop stop-opacity="1" stop-color="rgb(96.678162%, 50.141907%, 24.212646%)" offset="0.246094"/><stop stop-opacity="1" stop-color="rgb(96.731567%, 50.67749%, 23.831177%)" offset="0.25"/><stop stop-opacity="1" stop-color="rgb(96.784973%, 51.211548%, 23.449707%)" offset="0.253906"/><stop stop-opacity="1" stop-color="rgb(96.838379%, 51.745605%, 23.068237%)" offset="0.257813"/><stop stop-opacity="1" stop-color="rgb(96.890259%, 52.279663%, 22.686768%)" offset="0.261719"/><stop stop-opacity="1" stop-color="rgb(96.943665%, 52.815247%, 22.305298%)" offset="0.265625"/><stop stop-opacity="1" stop-color="rgb(96.99707%, 53.349304%, 21.922302%)" offset="0.269531"/><stop stop-opacity="1" stop-color="rgb(97.050476%, 53.884888%, 21.540833%)" offset="0.273438"/><stop stop-opacity="1" stop-color="rgb(97.103882%, 54.418945%, 21.159363%)" offset="0.277344"/><stop stop-opacity="1" stop-color="rgb(97.157288%, 54.954529%, 20.777893%)" offset="0.28125"/><stop stop-opacity="1" stop-color="rgb(97.210693%, 55.488586%, 20.396423%)" offset="0.285156"/><stop stop-opacity="1" stop-color="rgb(97.264099%, 56.02417%, 20.014954%)" offset="0.289063"/><stop stop-opacity="1" stop-color="rgb(97.315979%, 56.558228%, 19.633484%)" offset="0.292969"/><stop stop-opacity="1" stop-color="rgb(97.369385%, 57.093811%, 19.252014%)" offset="0.296875"/><stop stop-opacity="1" stop-color="rgb(97.422791%, 57.627869%, 18.870544%)" offset="0.300781"/><stop stop-opacity="1" stop-color="rgb(97.476196%, 58.163452%, 18.489075%)" offset="0.304688"/><stop stop-opacity="1" stop-color="rgb(97.529602%, 58.69751%, 18.107605%)" offset="0.308594"/><stop stop-opacity="1" stop-color="rgb(97.583008%, 59.231567%, 17.726135%)" offset="0.3125"/><stop stop-opacity="1" stop-color="rgb(97.634888%, 59.765625%, 17.344666%)" offset="0.316406"/><stop stop-opacity="1" stop-color="rgb(97.688293%, 60.301208%, 16.963196%)" offset="0.320313"/><stop stop-opacity="1" stop-color="rgb(97.741699%, 60.835266%, 16.581726%)" offset="0.324219"/><stop stop-opacity="1" stop-color="rgb(97.795105%, 61.37085%, 16.200256%)" offset="0.328125"/><stop stop-opacity="1" stop-color="rgb(97.848511%, 61.904907%, 15.818787%)" offset="0.332031"/><stop stop-opacity="1" stop-color="rgb(97.901917%, 62.440491%, 15.437317%)" offset="0.335938"/><stop stop-opacity="1" stop-color="rgb(97.955322%, 62.974548%, 15.055847%)" offset="0.339844"/><stop stop-opacity="1" stop-color="rgb(98.008728%, 63.510132%, 14.674377%)" offset="0.34375"/><stop stop-opacity="1" stop-color="rgb(98.060608%, 64.044189%, 14.292908%)" offset="0.347656"/><stop stop-opacity="1" stop-color="rgb(98.114014%, 64.579773%, 13.911438%)" offset="0.351563"/><stop stop-opacity="1" stop-color="rgb(98.167419%, 65.113831%, 13.529968%)" offset="0.355469"/><stop stop-opacity="1" stop-color="rgb(98.220825%, 65.647888%, 13.148499%)" offset="0.359375"/><stop stop-opacity="1" stop-color="rgb(98.274231%, 66.181946%, 12.765503%)" offset="0.363281"/><stop stop-opacity="1" stop-color="rgb(98.327637%, 66.717529%, 12.384033%)" offset="0.367188"/><stop stop-opacity="1" stop-color="rgb(98.379517%, 67.251587%, 12.002563%)" offset="0.371094"/><stop stop-opacity="1" stop-color="rgb(98.432922%, 67.78717%, 11.621094%)" offset="0.375"/><stop stop-opacity="1" stop-color="rgb(98.486328%, 68.321228%, 11.239624%)" offset="0.378906"/><stop stop-opacity="1" stop-color="rgb(98.539734%, 68.856812%, 10.858154%)" offset="0.382813"/><stop stop-opacity="1" stop-color="rgb(98.59314%, 69.390869%, 10.476685%)" offset="0.386719"/><stop stop-opacity="1" stop-color="rgb(98.646545%, 69.926453%, 10.095215%)" offset="0.390625"/><stop stop-opacity="1" stop-color="rgb(98.699951%, 70.46051%, 9.713745%)" offset="0.394531"/><stop stop-opacity="1" stop-color="rgb(98.753357%, 70.996094%, 9.332275%)" offset="0.398438"/><stop stop-opacity="1" stop-color="rgb(98.805237%, 71.530151%, 8.950806%)" offset="0.402344"/><stop stop-opacity="1" stop-color="rgb(98.858643%, 72.064209%, 8.569336%)" offset="0.40625"/><stop stop-opacity="1" stop-color="rgb(98.912048%, 72.598267%, 8.187866%)" offset="0.410156"/><stop stop-opacity="1" stop-color="rgb(98.965454%, 73.13385%, 7.806396%)" offset="0.414063"/><stop stop-opacity="1" stop-color="rgb(99.01886%, 73.667908%, 7.424927%)" offset="0.417969"/><stop stop-opacity="1" stop-color="rgb(99.072266%, 74.203491%, 7.043457%)" offset="0.421875"/><stop stop-opacity="1" stop-color="rgb(99.124146%, 74.737549%, 6.661987%)" offset="0.425781"/><stop stop-opacity="1" stop-color="rgb(99.177551%, 75.273132%, 6.280518%)" offset="0.429688"/><stop stop-opacity="1" stop-color="rgb(99.230957%, 75.80719%, 5.899048%)" offset="0.433594"/><stop stop-opacity="1" stop-color="rgb(99.284363%, 76.342773%, 5.517578%)" offset="0.4375"/><stop stop-opacity="1" stop-color="rgb(99.337769%, 76.876831%, 5.136108%)" offset="0.441406"/><stop stop-opacity="1" stop-color="rgb(99.391174%, 77.412415%, 4.754639%)" offset="0.445313"/><stop stop-opacity="1" stop-color="rgb(99.443054%, 77.946472%, 4.373169%)" offset="0.449219"/><stop stop-opacity="1" stop-color="rgb(99.49646%, 78.482056%, 3.991699%)" offset="0.453125"/><stop stop-opacity="1" stop-color="rgb(99.549866%, 79.016113%, 3.610229%)" offset="0.457031"/><stop stop-opacity="1" stop-color="rgb(99.603271%, 79.550171%, 3.22876%)" offset="0.460938"/><stop stop-opacity="1" stop-color="rgb(99.656677%, 80.084229%, 2.845764%)" offset="0.464844"/><stop stop-opacity="1" stop-color="rgb(99.710083%, 80.619812%, 2.464294%)" offset="0.46875"/><stop stop-opacity="1" stop-color="rgb(99.763489%, 81.15387%, 2.082825%)" offset="0.472656"/><stop stop-opacity="1" stop-color="rgb(99.816895%, 81.689453%, 1.701355%)" offset="0.476563"/><stop stop-opacity="1" stop-color="rgb(99.868774%, 82.223511%, 1.319885%)" offset="0.480469"/><stop stop-opacity="1" stop-color="rgb(99.92218%, 82.759094%, 0.938416%)" offset="0.484375"/><stop stop-opacity="1" stop-color="rgb(99.778748%, 83.106995%, 0.85144%)" offset="0.488281"/><stop stop-opacity="1" stop-color="rgb(99.636841%, 83.456421%, 0.765991%)" offset="0.492188"/><stop stop-opacity="1" stop-color="rgb(98.986816%, 83.326721%, 1.438904%)" offset="0.496094"/><stop stop-opacity="1" stop-color="rgb(98.338318%, 83.198547%, 2.111816%)" offset="0.5"/><stop stop-opacity="1" stop-color="rgb(97.688293%, 83.068848%, 2.784729%)" offset="0.503906"/><stop stop-opacity="1" stop-color="rgb(97.039795%, 82.940674%, 3.457642%)" offset="0.507813"/><stop stop-opacity="1" stop-color="rgb(96.391296%, 82.810974%, 4.130554%)" offset="0.511719"/><stop stop-opacity="1" stop-color="rgb(95.742798%, 82.681274%, 4.803467%)" offset="0.515625"/><stop stop-opacity="1" stop-color="rgb(95.092773%, 82.551575%, 5.476379%)" offset="0.519531"/><stop stop-opacity="1" stop-color="rgb(94.444275%, 82.423401%, 6.149292%)" offset="0.523438"/><stop stop-opacity="1" stop-color="rgb(93.795776%, 82.293701%, 6.822205%)" offset="0.527344"/><stop stop-opacity="1" stop-color="rgb(93.147278%, 82.165527%, 7.495117%)" offset="0.53125"/><stop stop-opacity="1" stop-color="rgb(92.497253%, 82.035828%, 8.16803%)" offset="0.535156"/><stop stop-opacity="1" stop-color="rgb(91.848755%, 81.907654%, 8.842468%)" offset="0.539063"/><stop stop-opacity="1" stop-color="rgb(91.19873%, 81.777954%, 9.515381%)" offset="0.542969"/><stop stop-opacity="1" stop-color="rgb(90.550232%, 81.648254%, 10.188293%)" offset="0.546875"/><stop stop-opacity="1" stop-color="rgb(89.901733%, 81.518555%, 10.861206%)" offset="0.550781"/><stop stop-opacity="1" stop-color="rgb(89.253235%, 81.390381%, 11.534119%)" offset="0.554688"/><stop stop-opacity="1" stop-color="rgb(88.60321%, 81.260681%, 12.207031%)" offset="0.558594"/><stop stop-opacity="1" stop-color="rgb(87.954712%, 81.132507%, 12.879944%)" offset="0.5625"/><stop stop-opacity="1" stop-color="rgb(87.306213%, 81.002808%, 13.552856%)" offset="0.566406"/><stop stop-opacity="1" stop-color="rgb(86.657715%, 80.873108%, 14.225769%)" offset="0.570312"/><stop stop-opacity="1" stop-color="rgb(86.00769%, 80.743408%, 14.898682%)" offset="0.574219"/><stop stop-opacity="1" stop-color="rgb(85.359192%, 80.615234%, 15.571594%)" offset="0.578125"/><stop stop-opacity="1" stop-color="rgb(84.709167%, 80.485535%, 16.244507%)" offset="0.582031"/><stop stop-opacity="1" stop-color="rgb(84.060669%, 80.357361%, 16.917419%)" offset="0.585938"/><stop stop-opacity="1" stop-color="rgb(83.41217%, 80.227661%, 17.590332%)" offset="0.589844"/><stop stop-opacity="1" stop-color="rgb(82.763672%, 80.099487%, 18.263245%)" offset="0.59375"/><stop stop-opacity="1" stop-color="rgb(82.113647%, 79.969788%, 18.936157%)" offset="0.597656"/><stop stop-opacity="1" stop-color="rgb(81.465149%, 79.840088%, 19.60907%)" offset="0.601563"/><stop stop-opacity="1" stop-color="rgb(80.81665%, 79.710388%, 20.281982%)" offset="0.605469"/><stop stop-opacity="1" stop-color="rgb(80.168152%, 79.582214%, 20.956421%)" offset="0.609375"/><stop stop-opacity="1" stop-color="rgb(79.518127%, 79.452515%, 21.629333%)" offset="0.613281"/><stop stop-opacity="1" stop-color="rgb(78.869629%, 79.324341%, 22.302246%)" offset="0.617188"/><stop stop-opacity="1" stop-color="rgb(78.22113%, 79.194641%, 22.975159%)" offset="0.621094"/><stop stop-opacity="1" stop-color="rgb(77.572632%, 79.064941%, 23.648071%)" offset="0.625"/><stop stop-opacity="1" stop-color="rgb(76.922607%, 78.935242%, 24.320984%)" offset="0.628906"/><stop stop-opacity="1" stop-color="rgb(76.274109%, 78.807068%, 24.993896%)" offset="0.632813"/><stop stop-opacity="1" stop-color="rgb(75.624084%, 78.677368%, 25.666809%)" offset="0.636719"/><stop stop-opacity="1" stop-color="rgb(74.975586%, 78.549194%, 26.339722%)" offset="0.640625"/><stop stop-opacity="1" stop-color="rgb(74.327087%, 78.419495%, 27.012634%)" offset="0.644531"/><stop stop-opacity="1" stop-color="rgb(73.678589%, 78.289795%, 27.685547%)" offset="0.648438"/><stop stop-opacity="1" stop-color="rgb(73.028564%, 78.160095%, 28.358459%)" offset="0.652344"/><stop stop-opacity="1" stop-color="rgb(72.380066%, 78.031921%, 29.031372%)" offset="0.65625"/><stop stop-opacity="1" stop-color="rgb(71.731567%, 77.902222%, 29.704285%)" offset="0.660156"/><stop stop-opacity="1" stop-color="rgb(71.083069%, 77.774048%, 30.377197%)" offset="0.664063"/><stop stop-opacity="1" stop-color="rgb(70.433044%, 77.644348%, 31.05011%)" offset="0.667969"/><stop stop-opacity="1" stop-color="rgb(69.784546%, 77.516174%, 31.724548%)" offset="0.671875"/><stop stop-opacity="1" stop-color="rgb(69.134521%, 77.386475%, 32.397461%)" offset="0.675781"/><stop stop-opacity="1" stop-color="rgb(68.486023%, 77.256775%, 33.070374%)" offset="0.679688"/><stop stop-opacity="1" stop-color="rgb(67.837524%, 77.127075%, 33.743286%)" offset="0.683594"/><stop stop-opacity="1" stop-color="rgb(67.189026%, 76.998901%, 34.416199%)" offset="0.6875"/><stop stop-opacity="1" stop-color="rgb(66.539001%, 76.869202%, 35.089111%)" offset="0.691406"/><stop stop-opacity="1" stop-color="rgb(65.890503%, 76.741028%, 35.762024%)" offset="0.695313"/><stop stop-opacity="1" stop-color="rgb(65.242004%, 76.611328%, 36.434937%)" offset="0.699219"/><stop stop-opacity="1" stop-color="rgb(64.593506%, 76.481628%, 37.107849%)" offset="0.703125"/><stop stop-opacity="1" stop-color="rgb(63.943481%, 76.351929%, 37.780762%)" offset="0.707031"/><stop stop-opacity="1" stop-color="rgb(63.294983%, 76.223755%, 38.453674%)" offset="0.710938"/><stop stop-opacity="1" stop-color="rgb(62.646484%, 76.094055%, 39.126587%)" offset="0.714844"/><stop stop-opacity="1" stop-color="rgb(61.997986%, 75.965881%, 39.7995%)" offset="0.71875"/><stop stop-opacity="1" stop-color="rgb(61.347961%, 75.836182%, 40.472412%)" offset="0.722656"/><stop stop-opacity="1" stop-color="rgb(60.699463%, 75.708008%, 41.145325%)" offset="0.726563"/><stop stop-opacity="1" stop-color="rgb(60.049438%, 75.578308%, 41.818237%)" offset="0.730469"/><stop stop-opacity="1" stop-color="rgb(59.40094%, 75.448608%, 42.49115%)" offset="0.734375"/><stop stop-opacity="1" stop-color="rgb(58.752441%, 75.318909%, 43.164062%)" offset="0.738281"/><stop stop-opacity="1" stop-color="rgb(58.103943%, 75.190735%, 43.838501%)" offset="0.742188"/><stop stop-opacity="1" stop-color="rgb(57.453918%, 75.061035%, 44.511414%)" offset="0.746094"/><stop stop-opacity="1" stop-color="rgb(56.80542%, 74.932861%, 45.184326%)" offset="0.75"/><stop stop-opacity="1" stop-color="rgb(56.156921%, 74.803162%, 45.857239%)" offset="0.753906"/><stop stop-opacity="1" stop-color="rgb(55.508423%, 74.673462%, 46.530151%)" offset="0.757813"/><stop stop-opacity="1" stop-color="rgb(54.858398%, 74.543762%, 47.203064%)" offset="0.761719"/><stop stop-opacity="1" stop-color="rgb(54.2099%, 74.415588%, 47.875977%)" offset="0.765625"/><stop stop-opacity="1" stop-color="rgb(53.559875%, 74.285889%, 48.548889%)" offset="0.769531"/><stop stop-opacity="1" stop-color="rgb(52.911377%, 74.157715%, 49.221802%)" offset="0.773438"/><stop stop-opacity="1" stop-color="rgb(52.262878%, 74.028015%, 49.894714%)" offset="0.777344"/><stop stop-opacity="1" stop-color="rgb(51.61438%, 73.898315%, 50.567627%)" offset="0.78125"/><stop stop-opacity="1" stop-color="rgb(50.964355%, 73.768616%, 51.24054%)" offset="0.785156"/><stop stop-opacity="1" stop-color="rgb(50.315857%, 73.640442%, 51.913452%)" offset="0.789063"/><stop stop-opacity="1" stop-color="rgb(49.667358%, 73.510742%, 52.586365%)" offset="0.792969"/><stop stop-opacity="1" stop-color="rgb(49.01886%, 73.382568%, 53.259277%)" offset="0.796875"/><stop stop-opacity="1" stop-color="rgb(48.368835%, 73.252869%, 53.93219%)" offset="0.800781"/><stop stop-opacity="1" stop-color="rgb(47.720337%, 73.124695%, 54.606628%)" offset="0.804688"/><stop stop-opacity="1" stop-color="rgb(47.070312%, 72.994995%, 55.279541%)" offset="0.808594"/><stop stop-opacity="1" stop-color="rgb(46.421814%, 72.865295%, 55.952454%)" offset="0.8125"/><stop stop-opacity="1" stop-color="rgb(45.773315%, 72.735596%, 56.625366%)" offset="0.816406"/><stop stop-opacity="1" stop-color="rgb(45.124817%, 72.607422%, 57.298279%)" offset="0.820313"/><stop stop-opacity="1" stop-color="rgb(44.474792%, 72.477722%, 57.971191%)" offset="0.824219"/><stop stop-opacity="1" stop-color="rgb(43.826294%, 72.349548%, 58.644104%)" offset="0.828125"/><stop stop-opacity="1" stop-color="rgb(43.177795%, 72.219849%, 59.317017%)" offset="0.832031"/><stop stop-opacity="1" stop-color="rgb(42.529297%, 72.090149%, 59.989929%)" offset="0.835938"/><stop stop-opacity="1" stop-color="rgb(41.879272%, 71.960449%, 60.662842%)" offset="0.839844"/><stop stop-opacity="1" stop-color="rgb(41.230774%, 71.832275%, 61.335754%)" offset="0.84375"/><stop stop-opacity="1" stop-color="rgb(40.582275%, 71.702576%, 62.008667%)" offset="0.847656"/><stop stop-opacity="1" stop-color="rgb(39.933777%, 71.574402%, 62.68158%)" offset="0.851563"/><stop stop-opacity="1" stop-color="rgb(39.283752%, 71.444702%, 63.354492%)" offset="0.855469"/><stop stop-opacity="1" stop-color="rgb(38.635254%, 71.316528%, 64.027405%)" offset="0.859375"/><stop stop-opacity="1" stop-color="rgb(37.985229%, 71.186829%, 64.700317%)" offset="0.863281"/><stop stop-opacity="1" stop-color="rgb(37.336731%, 71.057129%, 65.37323%)" offset="0.867188"/><stop stop-opacity="1" stop-color="rgb(36.688232%, 70.927429%, 66.046143%)" offset="0.871094"/><stop stop-opacity="1" stop-color="rgb(36.039734%, 70.799255%, 66.720581%)" offset="0.875"/><stop stop-opacity="1" stop-color="rgb(35.389709%, 70.669556%, 67.393494%)" offset="0.878906"/><stop stop-opacity="1" stop-color="rgb(34.741211%, 70.541382%, 68.066406%)" offset="0.882813"/><stop stop-opacity="1" stop-color="rgb(34.092712%, 70.411682%, 68.739319%)" offset="0.886719"/><stop stop-opacity="1" stop-color="rgb(33.444214%, 70.281982%, 69.412231%)" offset="0.890625"/><stop stop-opacity="1" stop-color="rgb(32.794189%, 70.152283%, 70.085144%)" offset="0.894531"/><stop stop-opacity="1" stop-color="rgb(32.145691%, 70.024109%, 70.758057%)" offset="0.898438"/><stop stop-opacity="1" stop-color="rgb(31.495667%, 69.894409%, 71.430969%)" offset="0.902344"/><stop stop-opacity="1" stop-color="rgb(30.847168%, 69.766235%, 72.103882%)" offset="0.90625"/><stop stop-opacity="1" stop-color="rgb(30.198669%, 69.636536%, 72.776794%)" offset="0.910156"/><stop stop-opacity="1" stop-color="rgb(29.550171%, 69.506836%, 73.449707%)" offset="0.914063"/><stop stop-opacity="1" stop-color="rgb(28.900146%, 69.377136%, 74.12262%)" offset="0.917969"/><stop stop-opacity="1" stop-color="rgb(28.251648%, 69.248962%, 74.795532%)" offset="0.921875"/><stop stop-opacity="1" stop-color="rgb(27.603149%, 69.119263%, 75.468445%)" offset="0.925781"/><stop stop-opacity="1" stop-color="rgb(26.954651%, 68.991089%, 76.141357%)" offset="0.929688"/><stop stop-opacity="1" stop-color="rgb(26.304626%, 68.861389%, 76.81427%)" offset="0.933594"/><stop stop-opacity="1" stop-color="rgb(25.656128%, 68.733215%, 77.487183%)" offset="0.9375"/><stop stop-opacity="1" stop-color="rgb(25.007629%, 68.603516%, 78.160095%)" offset="0.941406"/><stop stop-opacity="1" stop-color="rgb(24.359131%, 68.473816%, 78.834534%)" offset="0.945313"/><stop stop-opacity="1" stop-color="rgb(23.709106%, 68.344116%, 79.507446%)" offset="0.949219"/><stop stop-opacity="1" stop-color="rgb(23.060608%, 68.215942%, 80.180359%)" offset="0.953125"/><stop stop-opacity="1" stop-color="rgb(22.410583%, 68.086243%, 80.853271%)" offset="0.957031"/><stop stop-opacity="1" stop-color="rgb(21.762085%, 67.958069%, 81.526184%)" offset="0.960938"/><stop stop-opacity="1" stop-color="rgb(21.113586%, 67.828369%, 82.199097%)" offset="0.964844"/><stop stop-opacity="1" stop-color="rgb(20.465088%, 67.698669%, 82.872009%)" offset="0.96875"/><stop stop-opacity="1" stop-color="rgb(19.815063%, 67.56897%, 83.544922%)" offset="0.972656"/><stop stop-opacity="1" stop-color="rgb(19.166565%, 67.440796%, 84.217834%)" offset="0.976563"/><stop stop-opacity="1" stop-color="rgb(18.518066%, 67.311096%, 84.890747%)" offset="0.980469"/><stop stop-opacity="1" stop-color="rgb(17.869568%, 67.182922%, 85.56366%)" offset="0.984375"/><stop stop-opacity="1" stop-color="rgb(17.219543%, 67.053223%, 86.236572%)" offset="0.988281"/><stop stop-opacity="1" stop-color="rgb(16.571045%, 66.925049%, 86.909485%)" offset="0.992188"/><stop stop-opacity="1" stop-color="rgb(15.930176%, 66.796875%, 87.573242%)" offset="0.996094"/><stop stop-opacity="1" stop-color="rgb(15.289307%, 66.668701%, 88.238525%)" offset="1"/></linearGradient></defs><g clip-path="url(#2e631917e0)"><g clip-path="url(#ac3cf462d3)"><path fill="url(#e57e4ba135)" d="M 0.796875 17.726562 L 0.796875 130.53125 L 148.335938 130.53125 L 148.335938 17.726562 Z M 0.796875 17.726562 " fill-rule="nonzero"/></g></g></svg>